<svg width="15" height="17" viewBox="0 0 15 17" fill="none" xmlns="http://www.w3.org/2000/svg">
<path d="M2.75 16.4167C2.09028 16.4167 1.52951 16.1858 1.06771 15.724C0.605903 15.2622 0.375 14.7014 0.375 14.0417V2.95833C0.375 2.29861 0.605903 1.73785 1.06771 1.27604C1.52951 0.814236 2.09028 0.583333 2.75 0.583333H11.4583V13.25H2.75C2.52569 13.25 2.33767 13.3259 2.18594 13.4776C2.0342 13.6293 1.95833 13.8174 1.95833 14.0417C1.95833 14.266 2.0342 14.454 2.18594 14.6057C2.33767 14.7575 2.52569 14.8333 2.75 14.8333H13.0417V2.16667H14.625V16.4167H2.75ZM5.125 11.6667H9.875V2.16667H5.125V11.6667ZM3.54167 11.6667V2.16667H2.75C2.52569 2.16667 2.33767 2.24253 2.18594 2.39427C2.0342 2.54601 1.95833 2.73403 1.95833 2.95833V11.8052C2.09028 11.7656 2.21892 11.7326 2.34427 11.7062C2.46962 11.6799 2.60486 11.6667 2.75 11.6667H3.54167Z" fill="#E8EAED"/>
</svg>
