<svg width="418" height="117" viewBox="0 0 418 117" fill="none" xmlns="http://www.w3.org/2000/svg">
<path d="M24.6427 47.1302C11.2951 47.1302 0.499817 58.0495 0.499817 71.5502C0.499817 77.6204 2.22431 83.3067 5.36288 88.4349C8.63941 93.8073 12.9506 98.4122 16.2617 103.785C17.8827 106.401 19.0553 108.843 20.297 111.669C21.1937 113.588 21.918 116.902 24.6427 116.902C27.3674 116.902 28.0917 113.588 28.9539 111.669C30.23 108.843 31.3682 106.401 32.9892 103.785C36.3002 98.4471 40.6114 93.8422 43.888 88.4349C47.061 83.3067 48.7855 77.6204 48.7855 71.5502C48.7855 58.0495 37.9902 47.1302 24.6427 47.1302ZM24.6427 81.1438C19.8831 81.1438 16.0202 77.2366 16.0202 72.4224C16.0202 67.6082 19.8831 63.701 24.6427 63.701C29.4023 63.701 33.2651 67.6082 33.2651 72.4224C33.2651 77.2366 29.4023 81.1438 24.6427 81.1438Z" fill="#E60000"/>
</svg>
