<svg width="144" height="160" viewBox="0 0 144 160" fill="none" xmlns="http://www.w3.org/2000/svg">
<path d="M24.5 159.167C17.9028 159.167 12.2951 156.858 7.67708 152.24C3.05903 147.622 0.749998 142.014 0.749998 135.417V24.5833C0.749998 17.9861 3.05903 12.3785 7.67708 7.76042C12.2951 3.14236 17.9028 0.833333 24.5 0.833333H111.583V127.5H24.5C22.2569 127.5 20.3767 128.259 18.8594 129.776C17.342 131.293 16.5833 133.174 16.5833 135.417C16.5833 137.66 17.342 139.54 18.8594 141.057C20.3767 142.575 22.2569 143.333 24.5 143.333H127.417V16.6667H143.25V159.167H24.5ZM48.25 111.667H95.75V16.6667H48.25V111.667ZM32.4167 111.667V16.6667H24.5C22.2569 16.6667 20.3767 17.4253 18.8594 18.9427C17.342 20.4601 16.5833 22.3403 16.5833 24.5833V113.052C17.9028 112.656 19.1892 112.326 20.4427 112.062C21.6962 111.799 23.0486 111.667 24.5 111.667H32.4167Z" fill="white" fill-opacity="0.16"/>
</svg>
