<svg width="415" height="117" viewBox="0 0 415 117" fill="none" xmlns="http://www.w3.org/2000/svg">
<path d="M23.9881 46.8731C10.7261 46.8731 0 57.7923 0 71.2931C0 77.3632 1.71343 83.0496 4.83189 88.1778C8.08741 93.5502 12.371 98.1551 15.6608 103.527C17.2714 106.144 18.4366 108.586 19.6702 111.412C20.5612 113.33 21.2809 116.644 23.9881 116.644C26.6953 116.644 27.415 113.33 28.2717 111.412C29.5396 108.586 30.6705 106.144 32.2811 103.527C35.5709 98.19 39.8545 93.585 43.11 88.1778C46.2628 83.0496 47.9762 77.3632 47.9762 71.2931C47.9762 57.7923 37.2501 46.8731 23.9881 46.8731ZM23.9881 80.8866C19.259 80.8866 15.4209 76.9794 15.4209 72.1652C15.4209 67.351 19.259 63.4438 23.9881 63.4438C28.7172 63.4438 32.5553 67.351 32.5553 72.1652C32.5553 76.9794 28.7172 80.8866 23.9881 80.8866Z" fill="#E60000"/>
</svg>
