<svg width="314" height="255" viewBox="0 0 314 255" fill="none" xmlns="http://www.w3.org/2000/svg">
<g filter="url(#filter0_d_4002_289)">
<path d="M157 195C149.945 190.615 142.303 187.212 134.073 184.788C125.842 182.365 117.318 181.154 108.5 181.154C102.327 181.154 96.2648 181.788 90.3125 183.058C84.3602 184.327 78.6652 186.115 73.2273 188.423C70.1409 189.692 67.1648 189.635 64.2989 188.25C61.433 186.865 60 184.846 60 182.192V98.7692C60 97.5 60.4042 96.2885 61.2125 95.1346C62.0208 93.9808 63.2333 93.1154 64.85 92.5385C71.6106 89.7692 78.6652 87.6923 86.0136 86.3077C93.3621 84.9231 100.858 84.2308 108.5 84.2308C117.024 84.2308 125.365 85.0962 133.522 86.8269C141.678 88.5577 149.505 91.1538 157 94.6154V178.385C164.495 174.692 172.358 171.923 180.589 170.077C188.819 168.231 197.123 167.308 205.5 167.308C210.791 167.308 215.972 167.654 221.042 168.346C226.112 169.038 231.22 170.077 236.364 171.462V88.3846C238.568 88.9615 240.736 89.5673 242.867 90.2019C244.998 90.8365 247.092 91.6154 249.15 92.5385C250.767 93.1154 251.979 93.9808 252.787 95.1346C253.596 96.2885 254 97.5 254 98.7692V182.192C254 184.846 252.567 186.865 249.701 188.25C246.835 189.635 243.859 189.692 240.773 188.423C235.335 186.115 229.64 184.327 223.687 183.058C217.735 181.788 211.673 181.154 205.5 181.154C196.682 181.154 188.158 182.365 179.927 184.788C171.697 187.212 164.055 190.615 157 195ZM174.636 160.385V94.6154L218.727 60V129.231L174.636 160.385ZM139.364 171.635V103.096C134.514 101.481 129.48 100.24 124.262 99.375C119.045 98.5096 113.791 98.0769 108.5 98.0769C103.062 98.0769 97.7712 98.4808 92.6273 99.2885C87.4833 100.096 82.4864 101.308 77.6364 102.923V171.635C82.7803 170.135 87.8875 169.038 92.958 168.346C98.0284 167.654 103.209 167.308 108.5 167.308C113.791 167.308 118.972 167.654 124.042 168.346C129.112 169.038 134.22 170.135 139.364 171.635Z" fill="url(#paint0_linear_4002_289)"/>
</g>
<defs>
<filter id="filter0_d_4002_289" x="0" y="0" width="314" height="255" filterUnits="userSpaceOnUse" color-interpolation-filters="sRGB">
<feFlood flood-opacity="0" result="BackgroundImageFix"/>
<feColorMatrix in="SourceAlpha" type="matrix" values="0 0 0 0 0 0 0 0 0 0 0 0 0 0 0 0 0 0 127 0" result="hardAlpha"/>
<feOffset/>
<feGaussianBlur stdDeviation="30"/>
<feComposite in2="hardAlpha" operator="out"/>
<feColorMatrix type="matrix" values="0 0 0 0 1 0 0 0 0 0.15 0 0 0 0 0 0 0 0 0.2 0"/>
<feBlend mode="normal" in2="BackgroundImageFix" result="effect1_dropShadow_4002_289"/>
<feBlend mode="normal" in="SourceGraphic" in2="effect1_dropShadow_4002_289" result="shape"/>
</filter>
<linearGradient id="paint0_linear_4002_289" x1="60" y1="127.5" x2="254" y2="127.5" gradientUnits="userSpaceOnUse">
<stop stop-color="#FF5E0A"/>
<stop offset="1" stop-color="#FE8214"/>
</linearGradient>
</defs>
</svg>
